<?xml version="1.0"?>
<svg xmlns="http://www.w3.org/2000/svg" xmlns:xlink="http://www.w3.org/1999/xlink" xmlns:svgjs="http://svgjs.com/svgjs" version="1.1" width="512" height="512" x="0" y="0" viewBox="0 0 512 512" style="enable-background:new 0 0 512 512" xml:space="preserve" class=""><g><path xmlns="http://www.w3.org/2000/svg" d="m224.113281 303.960938 83.273438-47.960938-83.273438-47.960938zm0 0" fill="#ffffff" data-original="#000000" style="" class=""/><path xmlns="http://www.w3.org/2000/svg" d="m475.074219 0h-438.148438c-20.394531 0-36.925781 16.53125-36.925781 36.925781v438.148438c0 20.394531 16.53125 36.925781 36.925781 36.925781h438.148438c20.394531 0 36.925781-16.53125 36.925781-36.925781v-438.148438c0-20.394531-16.53125-36.925781-36.925781-36.925781zm-59.113281 256.261719s0 51.917969-6.585938 76.953125c-3.691406 13.703125-14.496094 24.507812-28.199219 28.195312-25.035156 6.589844-125.175781 6.589844-125.175781 6.589844s-99.878906 0-125.175781-6.851562c-13.703125-3.6875-24.507813-14.496094-28.199219-28.199219-6.589844-24.769531-6.589844-76.949219-6.589844-76.949219s0-51.914062 6.589844-76.949219c3.6875-13.703125 14.757812-24.773437 28.199219-28.460937 25.035156-6.589844 125.175781-6.589844 125.175781-6.589844s100.140625 0 125.175781 6.851562c13.703125 3.6875 24.507813 14.496094 28.199219 28.199219 6.851562 25.035157 6.585938 77.210938 6.585938 77.210938zm0 0" fill="#ffffff" data-original="#000000" style="" class=""/></g></svg>
